{
  "asset": {
    "version": "2.0",
    "generator": "Sketchup glTF Exporter by Evan Prananta."
  },
  "scene": 0,
  "scenes": [
    {
      "nodes": [
        0
      ]
    }
  ],
  "samplers": [
    {
    }
  ],
  "nodes": [
    {
      "name": "root",
      "children": [
        1,
        2,
        3,
        4,
        5,
        6,
        7,
        8
      ]
    },
    {
      "name": "Component",
      "mesh": 0
    },
    {
      "name": "Component2",
      "mesh": 1
    },
    {
      "name": "Component3",
      "mesh": 2
    },
    {
      "name": "Component25",
      "mesh": 3
    },
    {
      "name": "Component26",
      "mesh": 4
    },
    {
      "name": "Component27",
      "mesh": 5
    },
    {
      "name": "Component30",
      "mesh": 6
    },
    {
      "name": "Component38",
      "children": [
        9,
        10,
        11,
        12,
        13,
        14,
        15,
        16,
        17,
        18
      ]
    },
    {
      "name": "Component13",
      "mesh": 7
    },
    {
      "name": "Component39",
      "mesh": 8
    },
    {
      "name": "Component40",
      "mesh": 9
    },
    {
      "name": "Component14",
      "mesh": 10
    },
    {
      "name": "Component16",
      "mesh": 11
    },
    {
      "name": "Component41",
      "mesh": 12
    },
    {
      "name": "Component41",
      "mesh": 13
    },
    {
      "name": "Component41",
      "mesh": 14
    },
    {
      "name": "Component18",
      "mesh": 15
    },
    {
      "name": "Component16",
      "mesh": 16
    }
  ],
  "materials": [
    {
      "pbrMetallicRoughness": {
        "baseColorFactor": [
          0.0037,
          0.0738,
          0.7155,
          0.7333
        ],
        "metallicFactor": 0.1,
        "roughnessFactor": 0.9
      },
      "name": "SuMat3d66-3670503065104-3-941",
      "doubleSided": true,
      "alphaMode": "BLEND"
    },
    {
      "pbrMetallicRoughness": {
        "baseColorTexture": {
          "index": 0
        },
        "metallicFactor": 0.1,
        "roughnessFactor": 0.9
      },
      "name": "SuMat3d66-3670503065104-2-4337",
      "doubleSided": true,
      "alphaMode": "OPAQUE"
    },
    {
      "pbrMetallicRoughness": {
        "baseColorTexture": {
          "index": 1
        },
        "metallicFactor": 0.1,
        "roughnessFactor": 0.9
      },
      "name": "SuMat3d66-3670503065104-13-5317",
      "doubleSided": true,
      "alphaMode": "BLEND"
    },
    {
      "pbrMetallicRoughness": {
        "baseColorTexture": {
          "index": 2
        },
        "metallicFactor": 0.1,
        "roughnessFactor": 0.9
      },
      "name": "SuMat3d66-3670503065104-6-2788",
      "doubleSided": true,
      "alphaMode": "OPAQUE"
    },
    {
      "pbrMetallicRoughness": {
        "baseColorFactor": [
          0.0037,
          0.0738,
          0.7155,
          0.7333
        ],
        "metallicFactor": 0.1,
        "roughnessFactor": 0.9
      },
      "name": "SuMat3d66-3670503065104-8-7498",
      "doubleSided": true,
      "alphaMode": "BLEND"
    },
    {
      "pbrMetallicRoughness": {
        "baseColorFactor": [
          0.7818,
          0.7818,
          0.7818,
          1.0
        ],
        "metallicFactor": 0.1,
        "roughnessFactor": 0.9
      },
      "name": "SuMat3d66-3670503065104-11-7125",
      "doubleSided": true
    },
    {
      "pbrMetallicRoughness": {
        "baseColorFactor": [
          0.0037,
          0.0738,
          0.7155,
          0.7333
        ],
        "metallicFactor": 0.1,
        "roughnessFactor": 0.9
      },
      "name": "SuMat3d66-3670503065104-7-9024",
      "doubleSided": true,
      "alphaMode": "BLEND"
    },
    {
      "pbrMetallicRoughness": {
        "baseColorTexture": {
          "index": 3
        },
        "metallicFactor": 0.1,
        "roughnessFactor": 0.9
      },
      "name": "SuMat3d66-3670503065104-10-1164",
      "doubleSided": true,
      "alphaMode": "BLEND"
    },
    {
      "pbrMetallicRoughness": {
        "baseColorFactor": [
          0.0,
          0.6456,
          0.8832,
          1.0
        ],
        "metallicFactor": 0.1,
        "roughnessFactor": 0.9
      },
      "name": "SuMat3d66-3670503065104-5-8312",
      "doubleSided": true
    }
  ],
  "images": [
    {
      "bufferView": 0,
      "mimeType": "image/png"
    },
    {
      "bufferView": 1,
      "mimeType": "image/png"
    },
    {
      "bufferView": 2,
      "mimeType": "image/png"
    },
    {
      "bufferView": 3,
      "mimeType": "image/png"
    }
  ],
  "textures": [
    {
      "source": 0,
      "sampler": 0
    },
    {
      "source": 1,
      "sampler": 0
    },
    {
      "source": 2,
      "sampler": 0
    },
    {
      "source": 3,
      "sampler": 0
    }
  ],
  "meshes": [
    {
      "primitives": [
        {
          "attributes": {
            "POSITION": 0,
            "NORMAL": 1
          },
          "indices": 5,
          "mode": 4,
          "material": 0
        }
      ]
    },
    {
      "primitives": [
        {
          "attributes": {
            "POSITION": 2,
            "NORMAL": 3,
            "TEXCOORD_0": 4
          },
          "indices": 6,
          "mode": 4,
          "material": 1
        }
      ]
    },
    {
      "primitives": [
        {
          "attributes": {
            "POSITION": 2,
            "NORMAL": 3,
            "TEXCOORD_0": 4
          },
          "indices": 7,
          "mode": 4,
          "material": 1
        }
      ]
    },
    {
      "primitives": [
        {
          "attributes": {
            "POSITION": 2,
            "NORMAL": 3,
            "TEXCOORD_0": 4
          },
          "indices": 8,
          "mode": 4,
          "material": 2
        }
      ]
    },
    {
      "primitives": [
        {
          "attributes": {
            "POSITION": 0,
            "NORMAL": 1
          },
          "indices": 9,
          "mode": 4,
          "material": 0
        }
      ]
    },
    {
      "primitives": [
        {
          "attributes": {
            "POSITION": 2,
            "NORMAL": 3,
            "TEXCOORD_0": 4
          },
          "indices": 10,
          "mode": 4,
          "material": 3
        }
      ]
    },
    {
      "primitives": [
        {
          "attributes": {
            "POSITION": 0,
            "NORMAL": 1
          },
          "indices": 11,
          "mode": 4,
          "material": 0
        }
      ]
    },
    {
      "primitives": [
        {
          "attributes": {
            "POSITION": 0,
            "NORMAL": 1
          },
          "indices": 12,
          "mode": 4,
          "material": 4
        }
      ]
    },
    {
      "primitives": [
        {
          "attributes": {
            "POSITION": 0,
            "NORMAL": 1
          },
          "indices": 13,
          "mode": 4,
          "material": 5
        }
      ]
    },
    {
      "primitives": [
        {
          "attributes": {
            "POSITION": 0,
            "NORMAL": 1
          },
          "indices": 14,
          "mode": 4,
          "material": 6
        }
      ]
    },
    {
      "primitives": [
        {
          "attributes": {
            "POSITION": 0,
            "NORMAL": 1
          },
          "indices": 15,
          "mode": 4,
          "material": 0
        }
      ]
    },
    {
      "primitives": [
        {
          "attributes": {
            "POSITION": 2,
            "NORMAL": 3,
            "TEXCOORD_0": 4
          },
          "indices": 16,
          "mode": 4,
          "material": 7
        }
      ]
    },
    {
      "primitives": [
        {
          "attributes": {
            "POSITION": 0,
            "NORMAL": 1
          },
          "indices": 17,
          "mode": 4,
          "material": 8
        }
      ]
    },
    {
      "primitives": [
        {
          "attributes": {
            "POSITION": 0,
            "NORMAL": 1
          },
          "indices": 18,
          "mode": 4,
          "material": 8
        }
      ]
    },
    {
      "primitives": [
        {
          "attributes": {
            "POSITION": 0,
            "NORMAL": 1
          },
          "indices": 19,
          "mode": 4,
          "material": 8
        }
      ]
    },
    {
      "primitives": [
        {
          "attributes": {
            "POSITION": 0,
            "NORMAL": 1
          },
          "indices": 20,
          "mode": 4,
          "material": 5
        }
      ]
    },
    {
      "primitives": [
        {
          "attributes": {
            "POSITION": 2,
            "NORMAL": 3,
            "TEXCOORD_0": 4
          },
          "indices": 21,
          "mode": 4,
          "material": 7
        }
      ]
    }
  ],
  "accessors": [
    {
      "bufferView": 4,
      "componentType": 5126,
      "count": 5935,
      "type": "VEC3",
      "min": [
        -0.014813913692867754,
        0.00015999999940395174,
        -0.03231252656073924
      ],
      "max": [
        0.020125642032914337,
        0.031453686847700425,
        0.002466564191046213
      ]
    },
    {
      "bufferView": 5,
      "componentType": 5126,
      "count": 5935,
      "type": "VEC3"
    },
    {
      "bufferView": 6,
      "componentType": 5126,
      "count": 8597,
      "type": "VEC3",
      "min": [
        -0.017916258460134116,
        0.00015999999940395144,
        -0.03468270066408752
      ],
      "max": [
        0.02533352775570108,
        0.031453686847700425,
        0.006837094103114172
      ]
    },
    {
      "bufferView": 7,
      "componentType": 5126,
      "count": 8597,
      "type": "VEC3"
    },
    {
      "bufferView": 8,
      "componentType": 5126,
      "count": 8597,
      "type": "VEC2"
    },
    {
      "bufferView": 9,
      "componentType": 5123,
      "count": 3072,
      "type": "SCALAR"
    },
    {
      "bufferView": 10,
      "componentType": 5123,
      "count": 3072,
      "type": "SCALAR"
    },
    {
      "bufferView": 10,
      "componentType": 5123,
      "count": 1524,
      "type": "SCALAR",
      "byteOffset": 6144
    },
    {
      "bufferView": 10,
      "componentType": 5123,
      "count": 2844,
      "type": "SCALAR",
      "byteOffset": 9192
    },
    {
      "bufferView": 9,
      "componentType": 5123,
      "count": 1572,
      "type": "SCALAR",
      "byteOffset": 6144
    },
    {
      "bufferView": 10,
      "componentType": 5123,
      "count": 1572,
      "type": "SCALAR",
      "byteOffset": 14880
    },
    {
      "bufferView": 9,
      "componentType": 5123,
      "count": 9216,
      "type": "SCALAR",
      "byteOffset": 9288
    },
    {
      "bufferView": 9,
      "componentType": 5123,
      "count": 588,
      "type": "SCALAR",
      "byteOffset": 27720
    },
    {
      "bufferView": 9,
      "componentType": 5123,
      "count": 2100,
      "type": "SCALAR",
      "byteOffset": 28896
    },
    {
      "bufferView": 9,
      "componentType": 5123,
      "count": 588,
      "type": "SCALAR",
      "byteOffset": 33096
    },
    {
      "bufferView": 9,
      "componentType": 5123,
      "count": 1260,
      "type": "SCALAR",
      "byteOffset": 34272
    },
    {
      "bufferView": 10,
      "componentType": 5123,
      "count": 588,
      "type": "SCALAR",
      "byteOffset": 18024
    },
    {
      "bufferView": 9,
      "componentType": 5123,
      "count": 420,
      "type": "SCALAR",
      "byteOffset": 36792
    },
    {
      "bufferView": 9,
      "componentType": 5123,
      "count": 420,
      "type": "SCALAR",
      "byteOffset": 37632
    },
    {
      "bufferView": 9,
      "componentType": 5123,
      "count": 420,
      "type": "SCALAR",
      "byteOffset": 38472
    },
    {
      "bufferView": 9,
      "componentType": 5123,
      "count": 588,
      "type": "SCALAR",
      "byteOffset": 39312
    },
    {
      "bufferView": 10,
      "componentType": 5123,
      "count": 588,
      "type": "SCALAR",
      "byteOffset": 19200
    }
  ],
  "bufferViews": [
    {
      "buffer": 0,
      "byteLength": 5329
    },
    {
      "buffer": 0,
      "byteOffset": 5329,
      "byteLength": 5525
    },
    {
      "buffer": 0,
      "byteOffset": 10854,
      "byteLength": 5337
    },
    {
      "buffer": 0,
      "byteOffset": 16191,
      "byteLength": 5525
    },
    {
      "buffer": 0,
      "byteOffset": 21720,
      "byteLength": 71220,
      "target": 34962,
      "byteStride": 12
    },
    {
      "buffer": 0,
      "byteOffset": 92940,
      "byteLength": 71220,
      "target": 34962,
      "byteStride": 12
    },
    {
      "buffer": 0,
      "byteOffset": 164160,
      "byteLength": 103164,
      "target": 34962,
      "byteStride": 12
    },
    {
      "buffer": 0,
      "byteOffset": 267324,
      "byteLength": 103164,
      "target": 34962,
      "byteStride": 12
    },
    {
      "buffer": 0,
      "byteOffset": 370488,
      "byteLength": 68776,
      "target": 34962,
      "byteStride": 8
    },
    {
      "buffer": 0,
      "byteOffset": 439264,
      "byteLength": 40488,
      "target": 34963
    },
    {
      "buffer": 0,
      "byteOffset": 479752,
      "byteLength": 20376,
      "target": 34963
    }
  ],
  "buffers": [
    {
      "uri": "data:application/octet-stream;base64,",
      "byteLength": 500128
    }
  ]
}